<?xml version="1.0" encoding="UTF-8" standalone="no"?>
<!DOCTYPE svg PUBLIC "-//W3C//DTD SVG 1.1//EN"
 "http://www.w3.org/Graphics/SVG/1.1/DTD/svg11.dtd">
<!-- Generated by graphviz version 14.1.0 (20251206.1807)
 -->
<!-- Title: SecFlowArchitecture Pages: 1 -->
<svg width="871pt" height="540pt"
 viewBox="0.00 0.00 871.00 540.00" xmlns="http://www.w3.org/2000/svg" xmlns:xlink="http://www.w3.org/1999/xlink">
<g id="graph0" class="graph" transform="scale(0.540427 0.540427) rotate(0) translate(20.16 979.05)">
<title>SecFlowArchitecture</title>
<polygon fill="#ffffff" stroke="none" points="-20.16,20.16 -20.16,-979.05 1590.63,-979.05 1590.63,20.16 -20.16,20.16"/>
<text xml:space="preserve" text-anchor="middle" x="785.24" y="-932.09" font-family="PingFang SC" font-size="24.00">SecFlow 安全智脑 v1.3.3</text>
<text xml:space="preserve" text-anchor="middle" x="785.24" y="-898.34" font-family="PingFang SC" font-size="24.00">跨平台知识安全架构</text>
<g id="clust1" class="cluster">
<title>cluster_clients</title>
<path fill="#f4f8fd" stroke="#c9d8ec" d="M22.44,-694.86C22.44,-694.86 1131.94,-694.86 1131.94,-694.86 1137.94,-694.86 1143.94,-700.86 1143.94,-706.86 1143.94,-706.86 1143.94,-793.88 1143.94,-793.88 1143.94,-799.88 1137.94,-805.88 1131.94,-805.88 1131.94,-805.88 22.44,-805.88 22.44,-805.88 16.44,-805.88 10.44,-799.88 10.44,-793.88 10.44,-793.88 10.44,-706.86 10.44,-706.86 10.44,-700.86 16.44,-694.86 22.44,-694.86"/>
<text xml:space="preserve" text-anchor="middle" x="577.19" y="-789.53" font-family="PingFang SC" font-size="13.00" fill="#244a73">1. 跨平台客户端</text>
</g>
<g id="clust3" class="cluster">
<title>cluster_service</title>
<path fill="#f2faf8" stroke="#b9dbd5" d="M301.57,-555.84C301.57,-555.84 1254.55,-555.84 1254.55,-555.84 1260.55,-555.84 1266.55,-561.84 1266.55,-567.84 1266.55,-567.84 1266.55,-654.86 1266.55,-654.86 1266.55,-660.86 1260.55,-666.86 1254.55,-666.86 1254.55,-666.86 301.57,-666.86 301.57,-666.86 295.57,-666.86 289.57,-660.86 289.57,-654.86 289.57,-654.86 289.57,-567.84 289.57,-567.84 289.57,-561.84 295.57,-555.84 301.57,-555.84"/>
<text xml:space="preserve" text-anchor="middle" x="778.06" y="-650.51" font-family="PingFang SC" font-size="13.00" fill="#1e5c54">2. 本地服务与协议</text>
</g>
<g id="clust5" class="cluster">
<title>cluster_agents</title>
<path fill="#f6f8fc" stroke="#c7d4e8" d="M870.28,-286.04C870.28,-286.04 1383.68,-286.04 1383.68,-286.04 1389.68,-286.04 1395.68,-292.04 1395.68,-298.04 1395.68,-298.04 1395.68,-515.84 1395.68,-515.84 1395.68,-521.84 1389.68,-527.84 1383.68,-527.84 1383.68,-527.84 870.28,-527.84 870.28,-527.84 864.28,-527.84 858.28,-521.84 858.28,-515.84 858.28,-515.84 858.28,-298.04 858.28,-298.04 858.28,-292.04 864.28,-286.04 870.28,-286.04"/>
<text xml:space="preserve" text-anchor="middle" x="1126.98" y="-511.49" font-family="PingFang SC" font-size="13.00" fill="#304a6e">3. LangGraph Multi&#45;Agent 编排</text>
</g>
<g id="clust7" class="cluster">
<title>cluster_capabilities</title>
<path fill="#f5faf5" stroke="#c7dccb" d="M139.83,-147.02C139.83,-147.02 1288.46,-147.02 1288.46,-147.02 1294.46,-147.02 1300.46,-153.02 1300.46,-159.02 1300.46,-159.02 1300.46,-246.04 1300.46,-246.04 1300.46,-252.04 1294.46,-258.04 1288.46,-258.04 1288.46,-258.04 139.83,-258.04 139.83,-258.04 133.83,-258.04 127.83,-252.04 127.83,-246.04 127.83,-246.04 127.83,-159.02 127.83,-159.02 127.83,-153.02 133.83,-147.02 139.83,-147.02"/>
<text xml:space="preserve" text-anchor="middle" x="714.15" y="-241.69" font-family="PingFang SC" font-size="13.00" fill="#315b39">4. 安全能力与 MCP</text>
</g>
<g id="clust9" class="cluster">
<title>cluster_data</title>
<path fill="#fcfbf6" stroke="#d7d4c4" d="M691.58,-8C691.58,-8 1548.04,-8 1548.04,-8 1554.04,-8 1560.04,-14 1560.04,-20 1560.04,-20 1560.04,-107.02 1560.04,-107.02 1560.04,-113.02 1554.04,-119.02 1548.04,-119.02 1548.04,-119.02 691.58,-119.02 691.58,-119.02 685.58,-119.02 679.58,-113.02 679.58,-107.02 679.58,-107.02 679.58,-20 679.58,-20 679.58,-14 685.58,-8 691.58,-8"/>
<text xml:space="preserve" text-anchor="middle" x="1119.81" y="-102.67" font-family="PingFang SC" font-size="13.00" fill="#655d39">5. 本地数据与外部情报</text>
</g>
<!-- platforms -->
<g id="node1" class="node">
<title>platforms</title>
<path fill="#e6f0fc" stroke="#b9c5d4" stroke-width="1.1" d="M308.08,-742C308.08,-742 71.86,-742 71.86,-742 65.86,-742 59.86,-736 59.86,-730 59.86,-730 59.86,-718 59.86,-718 59.86,-712 65.86,-706 71.86,-706 71.86,-706 308.08,-706 308.08,-706 314.08,-706 320.08,-712 320.08,-718 320.08,-718 320.08,-730 320.08,-730 320.08,-736 314.08,-742 308.08,-742"/>
<text xml:space="preserve" text-anchor="middle" x="189.97" y="-722" font-family="PingFang SC" font-size="10.00" fill="#18212f">Windows x86_64 &#160;| &#160;macOS arm64 &#160;| &#160;macOS x86_64</text>
</g>
<!-- tauri -->
<g id="node2" class="node">
<title>tauri</title>
<path fill="#ddecfb" stroke="#b9c5d4" stroke-width="1.1" d="M596.58,-744.76C596.58,-744.76 483.36,-744.76 483.36,-744.76 477.36,-744.76 471.36,-738.76 471.36,-732.76 471.36,-732.76 471.36,-715.24 471.36,-715.24 471.36,-709.24 477.36,-703.24 483.36,-703.24 483.36,-703.24 596.58,-703.24 596.58,-703.24 602.58,-703.24 608.58,-709.24 608.58,-715.24 608.58,-715.24 608.58,-732.76 608.58,-732.76 608.58,-738.76 602.58,-744.76 596.58,-744.76"/>
<text xml:space="preserve" text-anchor="middle" x="539.97" y="-729.5" font-family="PingFang SC" font-size="10.00" fill="#18212f">Tauri 2 Desktop Host</text>
<text xml:space="preserve" text-anchor="middle" x="539.97" y="-714.5" font-family="PingFang SC" font-size="10.00" fill="#18212f">版本注入 · 后端完整性校验</text>
</g>
<!-- platforms&#45;&gt;tauri -->
<g id="edge1" class="edge">
<title>platforms&#45;&gt;tauri</title>
<path fill="none" stroke="#64748b" stroke-width="1.1" d="M320.29,-724C320.29,-724 462.74,-724 462.74,-724"/>
<polygon fill="#64748b" stroke="#64748b" stroke-width="1.1" points="462.74,-726.28 469.24,-724 462.74,-721.73 462.74,-726.28"/>
</g>
<!-- react -->
<g id="node3" class="node">
<title>react</title>
<path fill="#e9f5f2" stroke="#b9c5d4" stroke-width="1.1" d="M1098.95,-744.76C1098.95,-744.76 972.98,-744.76 972.98,-744.76 966.98,-744.76 960.98,-738.76 960.98,-732.76 960.98,-732.76 960.98,-715.24 960.98,-715.24 960.98,-709.24 966.98,-703.24 972.98,-703.24 972.98,-703.24 1098.95,-703.24 1098.95,-703.24 1104.95,-703.24 1110.95,-709.24 1110.95,-715.24 1110.95,-715.24 1110.95,-732.76 1110.95,-732.76 1110.95,-738.76 1104.95,-744.76 1098.95,-744.76"/>
<text xml:space="preserve" text-anchor="middle" x="1035.97" y="-729.5" font-family="PingFang SC" font-size="10.00" fill="#18212f">React / TypeScript UI</text>
<text xml:space="preserve" text-anchor="middle" x="1035.97" y="-714.5" font-family="PingFang SC" font-size="10.00" fill="#18212f">工作区 · 情报 · 漏洞库 · 报告</text>
</g>
<!-- tauri&#45;&gt;react -->
<g id="edge2" class="edge">
<title>tauri&#45;&gt;react</title>
<path fill="none" stroke="#64748b" stroke-width="1.1" d="M587.53,-702.74C587.53,-677.27 587.53,-638 587.53,-638 587.53,-638 985.97,-638 985.97,-638 985.97,-638 985.97,-694.58 985.97,-694.58"/>
<polygon fill="#64748b" stroke="#64748b" stroke-width="1.1" points="983.69,-694.58 985.97,-701.08 988.24,-694.58 983.69,-694.58"/>
<text xml:space="preserve" text-anchor="middle" x="783.97" y="-818.4" font-family="PingFang SC" font-size="8.00" fill="#475569">WebView2 / WKWebView</text>
</g>
<!-- sidecar -->
<g id="node7" class="node">
<title>sidecar</title>
<path fill="#e7f7f3" stroke="#b9c5d4" stroke-width="1.1" d="M468.33,-605.76C468.33,-605.76 335.61,-605.76 335.61,-605.76 329.61,-605.76 323.61,-599.76 323.61,-593.76 323.61,-593.76 323.61,-576.24 323.61,-576.24 323.61,-570.24 329.61,-564.24 335.61,-564.24 335.61,-564.24 468.33,-564.24 468.33,-564.24 474.33,-564.24 480.33,-570.24 480.33,-576.24 480.33,-576.24 480.33,-593.76 480.33,-593.76 480.33,-599.76 474.33,-605.76 468.33,-605.76"/>
<text xml:space="preserve" text-anchor="middle" x="401.97" y="-590.5" font-family="PingFang SC" font-size="10.00" fill="#18212f">Python Sidecar Lifecycle</text>
<text xml:space="preserve" text-anchor="middle" x="401.97" y="-575.5" font-family="PingFang SC" font-size="10.00" fill="#18212f">IPC / Process · Parent Watch</text>
</g>
<!-- tauri&#45;&gt;sidecar -->
<g id="edge19" class="edge">
<title>tauri&#45;&gt;sidecar</title>
<path fill="none" stroke="#326a9a" stroke-width="1.1" d="M475.84,-702.89C475.84,-702.89 475.84,-614.47 475.84,-614.47"/>
<polygon fill="#326a9a" stroke="#326a9a" stroke-width="1.1" points="478.12,-614.47 475.84,-607.97 473.57,-614.47 478.12,-614.47"/>
<text xml:space="preserve" text-anchor="middle" x="473.22" y="-679.4" font-family="PingFang SC" font-size="8.00" fill="#326a9a">IPC / Process</text>
</g>
<!-- transport -->
<g id="node6" class="node">
<title>transport</title>
<path fill="#e7f7f3" stroke="#b9c5d4" stroke-width="1.1" d="M1219.58,-605.76C1219.58,-605.76 1088.36,-605.76 1088.36,-605.76 1082.36,-605.76 1076.36,-599.76 1076.36,-593.76 1076.36,-593.76 1076.36,-576.24 1076.36,-576.24 1076.36,-570.24 1082.36,-564.24 1088.36,-564.24 1088.36,-564.24 1219.58,-564.24 1219.58,-564.24 1225.58,-564.24 1231.58,-570.24 1231.58,-576.24 1231.58,-576.24 1231.58,-593.76 1231.58,-593.76 1231.58,-599.76 1225.58,-605.76 1219.58,-605.76"/>
<text xml:space="preserve" text-anchor="middle" x="1153.97" y="-590.5" font-family="PingFang SC" font-size="10.00" fill="#18212f">REST + SSE</text>
<text xml:space="preserve" text-anchor="middle" x="1153.97" y="-575.5" font-family="PingFang SC" font-size="10.00" fill="#18212f">Health / Streaming / Interrupt</text>
</g>
<!-- react&#45;&gt;transport -->
<g id="edge20" class="edge">
<title>react&#45;&gt;transport</title>
<path fill="none" stroke="#326a9a" stroke-width="1.1" d="M1093.65,-702.89C1093.65,-702.89 1093.65,-614.47 1093.65,-614.47"/>
<polygon fill="#326a9a" stroke="#326a9a" stroke-width="1.1" points="1095.93,-614.47 1093.65,-607.97 1091.38,-614.47 1095.93,-614.47"/>
<text xml:space="preserve" text-anchor="middle" x="1103.22" y="-679.4" font-family="PingFang SC" font-size="8.00" fill="#326a9a">REST / SSE</text>
</g>
<!-- trial -->
<g id="node4" class="node">
<title>trial</title>
<path fill="#fff3da" stroke="#e8be64" stroke-width="1.1" d="M812.83,-744.76C812.83,-744.76 689.11,-744.76 689.11,-744.76 683.11,-744.76 677.11,-738.76 677.11,-732.76 677.11,-732.76 677.11,-715.24 677.11,-715.24 677.11,-709.24 683.11,-703.24 689.11,-703.24 689.11,-703.24 812.83,-703.24 812.83,-703.24 818.83,-703.24 824.83,-709.24 824.83,-715.24 824.83,-715.24 824.83,-732.76 824.83,-732.76 824.83,-738.76 818.83,-744.76 812.83,-744.76"/>
<text xml:space="preserve" text-anchor="middle" x="750.97" y="-729.5" font-family="PingFang SC" font-size="10.00" fill="#18212f">7 天试用授权门禁</text>
<text xml:space="preserve" text-anchor="middle" x="750.97" y="-714.5" font-family="PingFang SC" font-size="10.00" fill="#18212f">首次成功启动起连续 168 小时</text>
</g>
<!-- trial&#45;&gt;react -->
<g id="edge3" class="edge">
<title>trial&#45;&gt;react</title>
<path fill="none" stroke="#64748b" stroke-width="1.1" stroke-dasharray="5,2" d="M825.1,-724C825.1,-724 952.55,-724 952.55,-724"/>
<polygon fill="#64748b" stroke="#64748b" stroke-width="1.1" points="952.55,-726.28 959.05,-724 952.55,-721.73 952.55,-726.28"/>
</g>
<!-- release -->
<g id="node23" class="node">
<title>release</title>
<polygon fill="#f4ecfa" stroke="#a886c2" stroke-width="1.1" points="1396.08,-502.26 1279.86,-502.26 1279.86,-445.74 1402.08,-445.74 1402.08,-496.26 1396.08,-502.26"/>
<polyline fill="none" stroke="#a886c2" stroke-width="1.1" points="1396.08,-502.26 1396.08,-496.26"/>
<polyline fill="none" stroke="#a886c2" stroke-width="1.1" points="1402.08,-496.26 1396.08,-496.26"/>
<text xml:space="preserve" text-anchor="middle" x="1340.97" y="-487" font-family="PingFang SC" font-size="10.00" fill="#5e3f75">RELEASE BOUNDARY</text>
<text xml:space="preserve" text-anchor="middle" x="1340.97" y="-472" font-family="PingFang SC" font-size="10.00" fill="#5e3f75">Formal: local archive</text>
<text xml:space="preserve" text-anchor="middle" x="1340.97" y="-457" font-family="PingFang SC" font-size="10.00" fill="#5e3f75">Public: 7&#45;day trial only</text>
</g>
<!-- trial&#45;&gt;release -->
<g id="edge26" class="edge">
<title>trial&#45;&gt;release</title>
<path fill="none" stroke="#a886c2" stroke-width="1.1" stroke-dasharray="5,2" d="M803,-702.75C803,-688 803,-671 803,-671 803,-671 1340.97,-671 1340.97,-671 1340.97,-671 1340.97,-557.28 1340.97,-502.65"/>
</g>
<!-- api -->
<g id="node5" class="node">
<title>api</title>
<path fill="#ddf4ef" stroke="#b9c5d4" stroke-width="1.1" d="M752.33,-605.76C752.33,-605.76 637.61,-605.76 637.61,-605.76 631.61,-605.76 625.61,-599.76 625.61,-593.76 625.61,-593.76 625.61,-576.24 625.61,-576.24 625.61,-570.24 631.61,-564.24 637.61,-564.24 637.61,-564.24 752.33,-564.24 752.33,-564.24 758.33,-564.24 764.33,-570.24 764.33,-576.24 764.33,-576.24 764.33,-593.76 764.33,-593.76 764.33,-599.76 758.33,-605.76 752.33,-605.76"/>
<text xml:space="preserve" text-anchor="middle" x="694.97" y="-590.5" font-family="PingFang SC" font-size="10.00" fill="#18212f">FastAPI Local API</text>
<text xml:space="preserve" text-anchor="middle" x="694.97" y="-575.5" font-family="PingFang SC" font-size="10.00" fill="#18212f">127.0.0.1 · OpenAPI v1.3.3</text>
</g>
<!-- api&#45;&gt;transport -->
<g id="edge4" class="edge">
<title>api&#45;&gt;transport</title>
<path fill="none" stroke="#64748b" stroke-width="1.1" d="M734.43,-563.85C734.43,-549.45 734.43,-533 734.43,-533 734.43,-533 1087.23,-533 1087.23,-533 1087.23,-533 1087.23,-555.68 1087.23,-555.68"/>
<polygon fill="#64748b" stroke="#64748b" stroke-width="1.1" points="1084.96,-555.68 1087.23,-562.18 1089.51,-555.68 1084.96,-555.68"/>
</g>
<!-- workers -->
<g id="node8" class="node">
<title>workers</title>
<path fill="#ddf4ef" stroke="#b9c5d4" stroke-width="1.1" d="M998.95,-605.76C998.95,-605.76 920.98,-605.76 920.98,-605.76 914.98,-605.76 908.98,-599.76 908.98,-593.76 908.98,-593.76 908.98,-576.24 908.98,-576.24 908.98,-570.24 914.98,-564.24 920.98,-564.24 920.98,-564.24 998.95,-564.24 998.95,-564.24 1004.95,-564.24 1010.95,-570.24 1010.95,-576.24 1010.95,-576.24 1010.95,-593.76 1010.95,-593.76 1010.95,-599.76 1004.95,-605.76 998.95,-605.76"/>
<text xml:space="preserve" text-anchor="middle" x="959.97" y="-590.5" font-family="PingFang SC" font-size="10.00" fill="#18212f">2 × Task Worker</text>
<text xml:space="preserve" text-anchor="middle" x="959.97" y="-575.5" font-family="PingFang SC" font-size="10.00" fill="#18212f">SQLite Task Store</text>
</g>
<!-- api&#45;&gt;workers -->
<g id="edge6" class="edge">
<title>api&#45;&gt;workers</title>
<path fill="none" stroke="#64748b" stroke-width="1.1" d="M764.59,-585C764.59,-585 900.64,-585 900.64,-585"/>
<polygon fill="#64748b" stroke="#64748b" stroke-width="1.1" points="900.64,-587.28 907.14,-585 900.64,-582.73 900.64,-587.28"/>
</g>
<!-- privacy -->
<g id="node22" class="node">
<title>privacy</title>
<polygon fill="#fce8e8" stroke="#cf7777" stroke-width="1.1" points="1022.7,-502.26 907.23,-502.26 907.23,-445.74 1028.7,-445.74 1028.7,-496.26 1022.7,-502.26"/>
<polyline fill="none" stroke="#cf7777" stroke-width="1.1" points="1022.7,-502.26 1022.7,-496.26"/>
<polyline fill="none" stroke="#cf7777" stroke-width="1.1" points="1028.7,-496.26 1022.7,-496.26"/>
<text xml:space="preserve" text-anchor="middle" x="967.97" y="-487" font-family="PingFang SC" font-size="10.00" fill="#833c3c">PRIVACY BOUNDARY</text>
<text xml:space="preserve" text-anchor="middle" x="967.97" y="-472" font-family="PingFang SC" font-size="10.00" fill="#833c3c">Secrets masked</text>
<text xml:space="preserve" text-anchor="middle" x="967.97" y="-457" font-family="PingFang SC" font-size="10.00" fill="#833c3c">Local&#45;only by default</text>
</g>
<!-- api&#45;&gt;privacy -->
<g id="edge25" class="edge">
<title>api&#45;&gt;privacy</title>
<path fill="none" stroke="#cf7777" stroke-width="1.1" stroke-dasharray="5,2" d="M749.38,-563.86C749.38,-531.65 749.38,-474 749.38,-474 749.38,-474 842.12,-474 906.79,-474"/>
</g>
<!-- supervisor -->
<g id="node9" class="node">
<title>supervisor</title>
<path fill="#dce7f7" stroke="#7e9cc3" stroke-width="1.4" d="M1204.2,-494.76C1204.2,-494.76 1103.73,-494.76 1103.73,-494.76 1097.73,-494.76 1091.73,-488.76 1091.73,-482.76 1091.73,-482.76 1091.73,-465.24 1091.73,-465.24 1091.73,-459.24 1097.73,-453.24 1103.73,-453.24 1103.73,-453.24 1204.2,-453.24 1204.2,-453.24 1210.2,-453.24 1216.2,-459.24 1216.2,-465.24 1216.2,-465.24 1216.2,-482.76 1216.2,-482.76 1216.2,-488.76 1210.2,-494.76 1204.2,-494.76"/>
<text xml:space="preserve" text-anchor="middle" x="1153.97" y="-479.5" font-family="PingFang SC" font-size="10.00" fill="#18212f">Supervisor</text>
<text xml:space="preserve" text-anchor="middle" x="1153.97" y="-464.5" font-family="PingFang SC" font-size="10.00" fill="#18212f">Plan · Route · Handoff</text>
</g>
<!-- transport&#45;&gt;supervisor -->
<g id="edge21" class="edge">
<title>transport&#45;&gt;supervisor</title>
<path fill="none" stroke="#64748b" stroke-width="1.1" d="M1153.97,-563.86C1153.97,-563.86 1153.97,-503.6 1153.97,-503.6"/>
<polygon fill="#64748b" stroke="#64748b" stroke-width="1.1" points="1156.24,-503.6 1153.97,-497.1 1151.69,-503.6 1156.24,-503.6"/>
<text xml:space="preserve" text-anchor="middle" x="1185.47" y="-540.4" font-family="PingFang SC" font-size="8.00" fill="#475569">request / stream</text>
</g>
<!-- sidecar&#45;&gt;api -->
<g id="edge5" class="edge">
<title>sidecar&#45;&gt;api</title>
<path fill="none" stroke="#64748b" stroke-width="1.1" d="M480.87,-585C480.87,-585 617.25,-585 617.25,-585"/>
<polygon fill="#64748b" stroke="#64748b" stroke-width="1.1" points="617.25,-587.28 623.75,-585 617.25,-582.73 617.25,-587.28"/>
</g>
<!-- conversation -->
<g id="node10" class="node">
<title>conversation</title>
<path fill="#ffffff" stroke="#b9c5d4" stroke-width="1.1" d="M1003.7,-405.76C1003.7,-405.76 900.23,-405.76 900.23,-405.76 894.23,-405.76 888.23,-399.76 888.23,-393.76 888.23,-393.76 888.23,-376.24 888.23,-376.24 888.23,-370.24 894.23,-364.24 900.23,-364.24 900.23,-364.24 1003.7,-364.24 1003.7,-364.24 1009.7,-364.24 1015.7,-370.24 1015.7,-376.24 1015.7,-376.24 1015.7,-393.76 1015.7,-393.76 1015.7,-399.76 1009.7,-405.76 1003.7,-405.76"/>
<text xml:space="preserve" text-anchor="middle" x="951.97" y="-390.5" font-family="PingFang SC" font-size="10.00" fill="#18212f">Conversation +</text>
<text xml:space="preserve" text-anchor="middle" x="951.97" y="-375.5" font-family="PingFang SC" font-size="10.00" fill="#18212f">Project Context Agents</text>
</g>
<!-- supervisor&#45;&gt;conversation -->
<g id="edge7" class="edge">
<title>supervisor&#45;&gt;conversation</title>
<path fill="none" stroke="#64748b" stroke-width="1.1" d="M1091.17,-474C1070.41,-474 1052.53,-474 1052.53,-474 1052.53,-474 1052.53,-385 1052.53,-385 1052.53,-385 1024.39,-385 1024.39,-385"/>
<polygon fill="#64748b" stroke="#64748b" stroke-width="1.1" points="1024.39,-382.73 1017.89,-385 1024.39,-387.28 1024.39,-382.73"/>
<text xml:space="preserve" text-anchor="middle" x="1032.84" y="-424.4" font-family="PingFang SC" font-size="8.00" fill="#475569">handoff</text>
</g>
<!-- scan -->
<g id="node11" class="node">
<title>scan</title>
<path fill="#ffffff" stroke="#b9c5d4" stroke-width="1.1" d="M1213.2,-405.76C1213.2,-405.76 1094.73,-405.76 1094.73,-405.76 1088.73,-405.76 1082.73,-399.76 1082.73,-393.76 1082.73,-393.76 1082.73,-376.24 1082.73,-376.24 1082.73,-370.24 1088.73,-364.24 1094.73,-364.24 1094.73,-364.24 1213.2,-364.24 1213.2,-364.24 1219.2,-364.24 1225.2,-370.24 1225.2,-376.24 1225.2,-376.24 1225.2,-393.76 1225.2,-393.76 1225.2,-399.76 1219.2,-405.76 1213.2,-405.76"/>
<text xml:space="preserve" text-anchor="middle" x="1153.97" y="-390.5" font-family="PingFang SC" font-size="10.00" fill="#18212f">Code Scan + Component +</text>
<text xml:space="preserve" text-anchor="middle" x="1153.97" y="-375.5" font-family="PingFang SC" font-size="10.00" fill="#18212f">SBOM Agents</text>
</g>
<!-- supervisor&#45;&gt;scan -->
<g id="edge8" class="edge">
<title>supervisor&#45;&gt;scan</title>
<path fill="none" stroke="#64748b" stroke-width="1.1" d="M1153.97,-452.91C1153.97,-452.91 1153.97,-414.41 1153.97,-414.41"/>
<polygon fill="#64748b" stroke="#64748b" stroke-width="1.1" points="1156.24,-414.41 1153.97,-407.91 1151.69,-414.41 1156.24,-414.41"/>
<text xml:space="preserve" text-anchor="middle" x="1167.84" y="-424.4" font-family="PingFang SC" font-size="8.00" fill="#475569">handoff</text>
</g>
<!-- intelligence -->
<g id="node12" class="node">
<title>intelligence</title>
<path fill="#ffffff" stroke="#b9c5d4" stroke-width="1.1" d="M1359.7,-405.76C1359.7,-405.76 1298.23,-405.76 1298.23,-405.76 1292.23,-405.76 1286.23,-399.76 1286.23,-393.76 1286.23,-393.76 1286.23,-376.24 1286.23,-376.24 1286.23,-370.24 1292.23,-364.24 1298.23,-364.24 1298.23,-364.24 1359.7,-364.24 1359.7,-364.24 1365.7,-364.24 1371.7,-370.24 1371.7,-376.24 1371.7,-376.24 1371.7,-393.76 1371.7,-393.76 1371.7,-399.76 1365.7,-405.76 1359.7,-405.76"/>
<text xml:space="preserve" text-anchor="middle" x="1328.97" y="-390.5" font-family="PingFang SC" font-size="10.00" fill="#18212f">Intelligence +</text>
<text xml:space="preserve" text-anchor="middle" x="1328.97" y="-375.5" font-family="PingFang SC" font-size="10.00" fill="#18212f">Report Agents</text>
</g>
<!-- supervisor&#45;&gt;intelligence -->
<g id="edge9" class="edge">
<title>supervisor&#45;&gt;intelligence</title>
<path fill="none" stroke="#64748b" stroke-width="1.1" d="M1216.88,-474C1234.56,-474 1249.08,-474 1249.08,-474 1249.08,-474 1249.08,-385 1249.08,-385 1249.08,-385 1277.58,-385 1277.58,-385"/>
<polygon fill="#64748b" stroke="#64748b" stroke-width="1.1" points="1277.58,-387.28 1284.08,-385 1277.58,-382.73 1277.58,-387.28"/>
<text xml:space="preserve" text-anchor="middle" x="1289.84" y="-424.4" font-family="PingFang SC" font-size="8.00" fill="#475569">handoff</text>
</g>
<!-- aggregator -->
<g id="node13" class="node">
<title>aggregator</title>
<path fill="#e8eff9" stroke="#b9c5d4" stroke-width="1.1" d="M1118.33,-335.76C1118.33,-335.76 997.61,-335.76 997.61,-335.76 991.61,-335.76 985.61,-329.76 985.61,-323.76 985.61,-323.76 985.61,-306.24 985.61,-306.24 985.61,-300.24 991.61,-294.24 997.61,-294.24 997.61,-294.24 1118.33,-294.24 1118.33,-294.24 1124.33,-294.24 1130.33,-300.24 1130.33,-306.24 1130.33,-306.24 1130.33,-323.76 1130.33,-323.76 1130.33,-329.76 1124.33,-335.76 1118.33,-335.76"/>
<text xml:space="preserve" text-anchor="middle" x="1057.97" y="-320.5" font-family="PingFang SC" font-size="10.00" fill="#18212f">Result Aggregator</text>
<text xml:space="preserve" text-anchor="middle" x="1057.97" y="-305.5" font-family="PingFang SC" font-size="10.00" fill="#18212f">Unified Response / Artifact</text>
</g>
<!-- conversation&#45;&gt;aggregator -->
<g id="edge10" class="edge">
<title>conversation&#45;&gt;aggregator</title>
<path fill="none" stroke="#64748b" stroke-width="1.1" d="M1000.65,-364C1000.65,-364 1000.65,-344.15 1000.65,-344.15"/>
<polygon fill="#64748b" stroke="#64748b" stroke-width="1.1" points="1002.93,-344.15 1000.65,-337.65 998.38,-344.15 1002.93,-344.15"/>
</g>
<!-- scan&#45;&gt;aggregator -->
<g id="edge11" class="edge">
<title>scan&#45;&gt;aggregator</title>
<path fill="none" stroke="#64748b" stroke-width="1.1" d="M1106.53,-364C1106.53,-364 1106.53,-344.15 1106.53,-344.15"/>
<polygon fill="#64748b" stroke="#64748b" stroke-width="1.1" points="1108.8,-344.15 1106.53,-337.65 1104.25,-344.15 1108.8,-344.15"/>
</g>
<!-- intelligence&#45;&gt;aggregator -->
<g id="edge12" class="edge">
<title>intelligence&#45;&gt;aggregator</title>
<path fill="none" stroke="#64748b" stroke-width="1.1" d="M1316.54,-364C1316.54,-343.38 1316.54,-315 1316.54,-315 1316.54,-315 1138.85,-315 1138.85,-315"/>
<polygon fill="#64748b" stroke="#64748b" stroke-width="1.1" points="1138.85,-312.73 1132.35,-315 1138.85,-317.28 1138.85,-312.73"/>
</g>
<!-- catalog -->
<g id="node20" class="node">
<title>catalog</title>
<path fill="#edf5f1" stroke="#b9c5d4" stroke-width="1.1" d="M1511.08,-57.76C1511.08,-57.76 1358.86,-57.76 1358.86,-57.76 1352.86,-57.76 1346.86,-51.76 1346.86,-45.76 1346.86,-45.76 1346.86,-28.24 1346.86,-28.24 1346.86,-22.24 1352.86,-16.24 1358.86,-16.24 1358.86,-16.24 1511.08,-16.24 1511.08,-16.24 1517.08,-16.24 1523.08,-22.24 1523.08,-28.24 1523.08,-28.24 1523.08,-45.76 1523.08,-45.76 1523.08,-51.76 1517.08,-57.76 1511.08,-57.76"/>
<text xml:space="preserve" text-anchor="middle" x="1434.97" y="-42.5" font-family="PingFang SC" font-size="10.00" fill="#18212f">Vulnerability Catalog</text>
<text xml:space="preserve" text-anchor="middle" x="1434.97" y="-27.5" font-family="PingFang SC" font-size="10.00" fill="#18212f">CVE / GHSA / CWE / Component</text>
</g>
<!-- intelligence&#45;&gt;catalog -->
<g id="edge24" class="edge">
<title>intelligence&#45;&gt;catalog</title>
<path fill="none" stroke="#64748b" stroke-width="1.1" d="M1355.14,-363.75C1355.14,-363.75 1355.14,-66.13 1355.14,-66.13"/>
<polygon fill="#64748b" stroke="#64748b" stroke-width="1.1" points="1357.41,-66.13 1355.14,-59.63 1352.86,-66.13 1357.41,-66.13"/>
<text xml:space="preserve" text-anchor="middle" x="1426.59" y="-270.4" font-family="PingFang SC" font-size="8.00" fill="#475569">query / enrich</text>
</g>
<!-- fabric -->
<g id="node14" class="node">
<title>fabric</title>
<path fill="#e3f2e5" stroke="#b9c5d4" stroke-width="1.1" d="M318.2,-196.76C318.2,-196.76 175.73,-196.76 175.73,-196.76 169.73,-196.76 163.73,-190.76 163.73,-184.76 163.73,-184.76 163.73,-167.24 163.73,-167.24 163.73,-161.24 169.73,-155.24 175.73,-155.24 175.73,-155.24 318.2,-155.24 318.2,-155.24 324.2,-155.24 330.2,-161.24 330.2,-167.24 330.2,-167.24 330.2,-184.76 330.2,-184.76 330.2,-190.76 324.2,-196.76 318.2,-196.76"/>
<text xml:space="preserve" text-anchor="middle" x="246.97" y="-181.5" font-family="PingFang SC" font-size="10.00" fill="#18212f">10 Agents · 7 Skills</text>
<text xml:space="preserve" text-anchor="middle" x="246.97" y="-166.5" font-family="PingFang SC" font-size="10.00" fill="#18212f">15 MCP Servers · 17 MCP Tools</text>
</g>
<!-- aggregator&#45;&gt;fabric -->
<g id="edge22" class="edge">
<title>aggregator&#45;&gt;fabric</title>
<path fill="none" stroke="#64748b" stroke-width="1.1" d="M985.07,-315C780.5,-315 215.85,-315 215.85,-315 215.85,-315 215.85,-205.28 215.85,-205.28"/>
<polygon fill="#64748b" stroke="#64748b" stroke-width="1.1" points="218.12,-205.28 215.85,-198.78 213.57,-205.28 218.12,-205.28"/>
<text xml:space="preserve" text-anchor="middle" x="376.34" y="-270.4" font-family="PingFang SC" font-size="8.00" fill="#475569">tool call / interrupt</text>
</g>
<!-- fusion -->
<g id="node17" class="node">
<title>fusion</title>
<path fill="#eaf6eb" stroke="#b9c5d4" stroke-width="1.1" d="M932.2,-196.76C932.2,-196.76 807.73,-196.76 807.73,-196.76 801.73,-196.76 795.73,-190.76 795.73,-184.76 795.73,-184.76 795.73,-167.24 795.73,-167.24 795.73,-161.24 801.73,-155.24 807.73,-155.24 807.73,-155.24 932.2,-155.24 932.2,-155.24 938.2,-155.24 944.2,-161.24 944.2,-167.24 944.2,-167.24 944.2,-184.76 944.2,-184.76 944.2,-190.76 938.2,-196.76 932.2,-196.76"/>
<text xml:space="preserve" text-anchor="middle" x="869.97" y="-181.5" font-family="PingFang SC" font-size="10.00" fill="#18212f">Evidence Fusion</text>
<text xml:space="preserve" text-anchor="middle" x="869.97" y="-166.5" font-family="PingFang SC" font-size="10.00" fill="#18212f">主告警 · 复核候选 · 解析缺口</text>
</g>
<!-- fabric&#45;&gt;fusion -->
<g id="edge15" class="edge">
<title>fabric&#45;&gt;fusion</title>
<path fill="none" stroke="#64748b" stroke-width="1.1" d="M267.96,-197.26C267.96,-222.73 267.96,-262 267.96,-262 267.96,-262 817.55,-262 817.55,-262 817.55,-262 817.55,-205.42 817.55,-205.42"/>
<polygon fill="#64748b" stroke="#64748b" stroke-width="1.1" points="819.83,-205.42 817.55,-198.92 815.28,-205.42 819.83,-205.42"/>
<text xml:space="preserve" text-anchor="middle" x="641.97" y="-270.4" font-family="PingFang SC" font-size="8.00" fill="#475569">MCP</text>
</g>
<!-- semgrep -->
<g id="node15" class="node">
<title>semgrep</title>
<path fill="#ffffff" stroke="#b9c5d4" stroke-width="1.1" d="M491.2,-196.76C491.2,-196.76 408.73,-196.76 408.73,-196.76 402.73,-196.76 396.73,-190.76 396.73,-184.76 396.73,-184.76 396.73,-167.24 396.73,-167.24 396.73,-161.24 402.73,-155.24 408.73,-155.24 408.73,-155.24 491.2,-155.24 491.2,-155.24 497.2,-155.24 503.2,-161.24 503.2,-167.24 503.2,-167.24 503.2,-184.76 503.2,-184.76 503.2,-190.76 497.2,-196.76 491.2,-196.76"/>
<text xml:space="preserve" text-anchor="middle" x="449.97" y="-181.5" font-family="PingFang SC" font-size="10.00" fill="#18212f">Semgrep</text>
<text xml:space="preserve" text-anchor="middle" x="449.97" y="-166.5" font-family="PingFang SC" font-size="10.00" fill="#18212f">Frozen Static Rules</text>
</g>
<!-- semgrep&#45;&gt;fusion -->
<g id="edge13" class="edge">
<title>semgrep&#45;&gt;fusion</title>
<path fill="none" stroke="#64748b" stroke-width="1.1" d="M491.76,-197.25C491.76,-212 491.76,-229 491.76,-229 491.76,-229 810.28,-229 810.28,-229 810.28,-229 810.28,-205.42 810.28,-205.42"/>
<polygon fill="#64748b" stroke="#64748b" stroke-width="1.1" points="812.55,-205.42 810.28,-198.92 808,-205.42 812.55,-205.42"/>
</g>
<!-- treesitter -->
<g id="node16" class="node">
<title>treesitter</title>
<path fill="#ffffff" stroke="#b9c5d4" stroke-width="1.1" d="M689.45,-196.76C689.45,-196.76 578.48,-196.76 578.48,-196.76 572.48,-196.76 566.48,-190.76 566.48,-184.76 566.48,-184.76 566.48,-167.24 566.48,-167.24 566.48,-161.24 572.48,-155.24 578.48,-155.24 578.48,-155.24 689.45,-155.24 689.45,-155.24 695.45,-155.24 701.45,-161.24 701.45,-167.24 701.45,-167.24 701.45,-184.76 701.45,-184.76 701.45,-190.76 695.45,-196.76 689.45,-196.76"/>
<text xml:space="preserve" text-anchor="middle" x="633.97" y="-181.5" font-family="PingFang SC" font-size="10.00" fill="#18212f">Tree&#45;sitter</text>
<text xml:space="preserve" text-anchor="middle" x="633.97" y="-166.5" font-family="PingFang SC" font-size="10.00" fill="#18212f">AST / CFG / DFG / Taint</text>
</g>
<!-- treesitter&#45;&gt;fusion -->
<g id="edge14" class="edge">
<title>treesitter&#45;&gt;fusion</title>
<path fill="none" stroke="#64748b" stroke-width="1.1" d="M701.91,-176C701.91,-176 787.31,-176 787.31,-176"/>
<polygon fill="#64748b" stroke="#64748b" stroke-width="1.1" points="787.31,-178.28 793.81,-176 787.31,-173.73 787.31,-178.28"/>
</g>
<!-- reports -->
<g id="node18" class="node">
<title>reports</title>
<path fill="#fff2dc" stroke="#e3b763" stroke-width="1.1" d="M1254.58,-196.76C1254.58,-196.76 1129.36,-196.76 1129.36,-196.76 1123.36,-196.76 1117.36,-190.76 1117.36,-184.76 1117.36,-184.76 1117.36,-167.24 1117.36,-167.24 1117.36,-161.24 1123.36,-155.24 1129.36,-155.24 1129.36,-155.24 1254.58,-155.24 1254.58,-155.24 1260.58,-155.24 1266.58,-161.24 1266.58,-167.24 1266.58,-167.24 1266.58,-184.76 1266.58,-184.76 1266.58,-190.76 1260.58,-196.76 1254.58,-196.76"/>
<text xml:space="preserve" text-anchor="middle" x="1191.97" y="-181.5" font-family="PingFang SC" font-size="10.00" fill="#18212f">Word · PDF · Excel · HTML</text>
<text xml:space="preserve" text-anchor="middle" x="1191.97" y="-166.5" font-family="PingFang SC" font-size="10.00" fill="#18212f">Markdown · SARIF</text>
</g>
<!-- fusion&#45;&gt;reports -->
<g id="edge16" class="edge">
<title>fusion&#45;&gt;reports</title>
<path fill="none" stroke="#64748b" stroke-width="1.1" d="M944.65,-176C944.65,-176 1108.69,-176 1108.69,-176"/>
<polygon fill="#64748b" stroke="#64748b" stroke-width="1.1" points="1108.69,-178.28 1115.19,-176 1108.69,-173.73 1108.69,-178.28"/>
</g>
<!-- local -->
<g id="node19" class="node">
<title>local</title>
<path fill="#f2f6f9" stroke="#b9c5d4" stroke-width="1.1" d="M902.45,-57.76C902.45,-57.76 731.48,-57.76 731.48,-57.76 725.48,-57.76 719.48,-51.76 719.48,-45.76 719.48,-45.76 719.48,-28.24 719.48,-28.24 719.48,-22.24 725.48,-16.24 731.48,-16.24 731.48,-16.24 902.45,-16.24 902.45,-16.24 908.45,-16.24 914.45,-22.24 914.45,-28.24 914.45,-28.24 914.45,-45.76 914.45,-45.76 914.45,-51.76 908.45,-57.76 902.45,-57.76"/>
<text xml:space="preserve" text-anchor="middle" x="816.97" y="-42.5" font-family="PingFang SC" font-size="10.00" fill="#18212f">Encrypted SQLite · Task Store</text>
<text xml:space="preserve" text-anchor="middle" x="816.97" y="-27.5" font-family="PingFang SC" font-size="10.00" fill="#18212f">Long&#45;term Memory · Report Artifacts</text>
</g>
<!-- fusion&#45;&gt;local -->
<g id="edge23" class="edge">
<title>fusion&#45;&gt;local</title>
<path fill="none" stroke="#64748b" stroke-width="1.1" d="M835.3,-154.89C835.3,-154.89 835.3,-66.47 835.3,-66.47"/>
<polygon fill="#64748b" stroke="#64748b" stroke-width="1.1" points="837.58,-66.47 835.3,-59.97 833.03,-66.47 837.58,-66.47"/>
<text xml:space="preserve" text-anchor="middle" x="889.09" y="-131.4" font-family="PingFang SC" font-size="8.00" fill="#475569">evidence / artifacts</text>
</g>
<!-- catalog&#45;&gt;local -->
<g id="edge18" class="edge">
<title>catalog&#45;&gt;local</title>
<path fill="none" stroke="#64748b" stroke-width="1.1" d="M1363.42,-58C1363.42,-78.62 1363.42,-107 1363.42,-107 1363.42,-107 874.88,-107 874.88,-107 874.88,-107 874.88,-66.17 874.88,-66.17"/>
<polygon fill="#64748b" stroke="#64748b" stroke-width="1.1" points="877.15,-66.17 874.88,-59.67 872.6,-66.17 877.15,-66.17"/>
<text xml:space="preserve" text-anchor="middle" x="1226.97" y="-131.4" font-family="PingFang SC" font-size="8.00" fill="#475569">local&#45;first</text>
</g>
<!-- external -->
<g id="node21" class="node">
<title>external</title>
<path fill="#fff0da" stroke="#e5b663" stroke-width="1.1" d="M1101.95,-57.76C1101.95,-57.76 999.98,-57.76 999.98,-57.76 993.98,-57.76 987.98,-51.76 987.98,-45.76 987.98,-45.76 987.98,-28.24 987.98,-28.24 987.98,-22.24 993.98,-16.24 999.98,-16.24 999.98,-16.24 1101.95,-16.24 1101.95,-16.24 1107.95,-16.24 1113.95,-22.24 1113.95,-28.24 1113.95,-28.24 1113.95,-45.76 1113.95,-45.76 1113.95,-51.76 1107.95,-57.76 1101.95,-57.76"/>
<text xml:space="preserve" text-anchor="middle" x="1050.97" y="-42.5" font-family="PingFang SC" font-size="10.00" fill="#18212f">NVD · GitHub Advisory</text>
<text xml:space="preserve" text-anchor="middle" x="1050.97" y="-27.5" font-family="PingFang SC" font-size="10.00" fill="#18212f">OSV · CISA KEV</text>
</g>
<!-- external&#45;&gt;catalog -->
<g id="edge17" class="edge">
<title>external&#45;&gt;catalog</title>
<path fill="none" stroke="#d28b32" stroke-width="1.1" d="M1114.38,-37C1114.38,-37 1338.15,-37 1338.15,-37"/>
<polygon fill="#d28b32" stroke="#d28b32" stroke-width="1.1" points="1338.15,-39.28 1344.65,-37 1338.15,-34.73 1338.15,-39.28"/>
</g>
</g>
</svg>
